<svg width="50" height="50" viewBox="0 0 50 50" fill="none" xmlns="http://www.w3.org/2000/svg">
<path fill-rule="evenodd" clip-rule="evenodd" d="M24.2625 20.8711C25.2146 20.8711 26.1277 21.2556 26.801 21.9401C27.4742 22.6246 27.8524 23.5529 27.8524 24.5209C27.8524 25.2428 27.6419 25.9485 27.2474 26.5487C26.853 27.1489 26.2923 27.6167 25.6363 27.893C24.9803 28.1692 24.2585 28.2415 23.5621 28.1007C22.8658 27.9598 22.2261 27.6122 21.724 27.1018C21.222 26.5913 20.8801 25.941 20.7416 25.233C20.603 24.525 20.6741 23.7911 20.9458 23.1242C21.2176 22.4573 21.6777 21.8873 22.268 21.4862C22.8584 21.0852 23.5525 20.8711 24.2625 20.8711Z" fill="#0471B5"/>
<path fill-rule="evenodd" clip-rule="evenodd" d="M7.31947 24.7921C11.0099 23.0853 13.099 28.9721 9.53843 30.3398C7.83559 30.9943 6.11505 30.2114 5.50862 28.7023C4.58976 26.4154 6.01014 25.3976 7.31947 24.7921ZM9.91849 13.104C12.9553 11.242 14.7807 16.3229 12.2305 17.4806C9.28057 18.8191 6.6554 15.1051 9.91849 13.104ZM24.7726 49.1451C36.5381 49.188 44.6673 41.5416 47.7401 33.3951C49.0802 29.842 46.7644 27.2293 44.0578 29.0591C43.1193 29.6933 42.9025 30.979 42.3868 32.2711C38.1475 42.8916 24.7595 47.6962 14.0048 41.0243C12.5833 40.1429 8.97658 37.6873 11.6894 35.4023C12.9599 34.3324 14.1996 34.773 15.2461 35.5655C23.0279 41.4573 33.0294 39.4374 37.3098 31.1161C42.5555 20.9183 33.8806 18.7333 33.5443 24.4373C32.9199 35.0336 21.7512 35.8338 17.3948 29.8619C13.7792 24.9059 16.3176 19.0521 20.367 16.8038C27.771 12.6928 31.9042 21.6437 34.2649 16.6739C35.472 14.1333 31.6717 12.3203 30.0783 11.68C26.1596 10.1043 22.1355 10.1464 18.2218 12.082C13.7662 14.2862 12.9545 10.2265 14.1632 8.67836C14.6931 7.99973 16.2203 7.35594 17.0404 7.01296C26.0389 3.24991 30.556 7.14018 32.8273 6.83785C35.5527 6.47458 36.2775 2.86094 33.0909 1.53584C24.4652 -2.05097 13.6585 0.983263 7.40595 7.12984C-7.84979 22.1258 1.69632 49.0612 24.7726 49.1451Z" fill="#0571B9"/>
<path fill-rule="evenodd" clip-rule="evenodd" d="M44.7404 11.2654C45.3591 11.2654 45.9718 11.3869 46.5434 11.623C47.1151 11.8591 47.6345 12.2051 48.072 12.6414C48.5095 13.0777 48.8566 13.5956 49.0933 14.1656C49.3301 14.7356 49.452 15.3465 49.452 15.9634C49.452 16.8926 49.1757 17.801 48.658 18.5736C48.1402 19.3461 47.4044 19.9483 46.5435 20.3039C45.6826 20.6595 44.7352 20.7525 43.8213 20.5713C42.9073 20.39 42.0678 19.9425 41.4089 19.2855C40.75 18.6285 40.3012 17.7914 40.1194 16.88C39.9376 15.9687 40.0309 15.0241 40.3875 14.1656C40.7441 13.3071 41.348 12.5734 42.1228 12.0572C42.8976 11.5409 43.8086 11.2654 44.7404 11.2654Z" fill="#F4981D"/>
<path fill-rule="evenodd" clip-rule="evenodd" d="M20.7896 39.1159C21.3515 39.1159 21.8905 39.3316 22.2879 39.7157C22.6852 40.0997 22.9085 40.6205 22.9085 41.1636C22.9085 41.5686 22.7842 41.9645 22.5514 42.3012C22.3186 42.6379 21.9876 42.9004 21.6005 43.0554C21.2133 43.2104 20.7872 43.2509 20.3762 43.1719C19.9652 43.0929 19.5876 42.8979 19.2913 42.6115C18.995 42.3251 18.7931 41.9603 18.7114 41.5631C18.6296 41.1658 18.6716 40.7541 18.832 40.38C18.9923 40.0058 19.2639 39.686 19.6124 39.461C19.9608 39.236 20.3705 39.1159 20.7896 39.1159Z" fill="#0A6EB3"/>
</svg>
